<svg xmlns="http://www.w3.org/2000/svg" viewBox="0 0 900 620" width="900" height="620"><defs><linearGradient id="metal" x1="0" y1="0" x2="1" y2="0"><stop offset="0" stop-color="#33383f"/><stop offset=".45" stop-color="#6a727c"/><stop offset="1" stop-color="#24282e"/></linearGradient><linearGradient id="leaf" x1="0" y1="0" x2="0" y2="1"><stop offset="0" stop-color="#5aa06a"/><stop offset="1" stop-color="#2b6039"/></linearGradient><linearGradient id="pot" x1="0" y1="0" x2="1" y2="0"><stop offset="0" stop-color="#8e5540"/><stop offset=".5" stop-color="#c07d55"/><stop offset="1" stop-color="#7d4934"/></linearGradient><linearGradient id="cup" x1="0" y1="0" x2="1" y2="0"><stop offset="0" stop-color="#bcc2c9"/><stop offset=".45" stop-color="#f2f4f7"/><stop offset="1" stop-color="#a3a9b1"/></linearGradient><radialGradient id="bulb" cx=".5" cy=".4" r=".6"><stop offset="0" stop-color="#fff6dc"/><stop offset="1" stop-color="#eec36e"/></radialGradient><linearGradient id="fur" x1="0" y1="0" x2="0" y2="1"><stop offset="0" stop-color="#4c443a"/><stop offset="1" stop-color="#2a251f"/></linearGradient></defs><ellipse cx="450" cy="604" rx="380" ry="20" fill="#000" opacity=".3"/><path d="M196 592 q-28 -246 178 -300 q152 -40 300 12 q188 66 154 288 z" fill="url(#fur)"/><path d="M636 560 q176 -34 214 16 q26 36 -36 40 q-102 8 -178 -16 z" fill="url(#fur)"/><circle cx="304" cy="330" r="152" fill="url(#fur)"/><path d="M186 246 L210 106 L316 218 Z" fill="#3c352c"/><path d="M422 246 L398 106 L292 218 Z" fill="#3c352c"/><ellipse cx="248" cy="326" rx="21" ry="29" fill="#cbd97d"/><ellipse cx="360" cy="326" rx="21" ry="29" fill="#cbd97d"/><path d="M286 392 q18 18 36 0" stroke="#d8b8a8" stroke-width="10" fill="none" stroke-linecap="round"/></svg>