<svg xmlns="http://www.w3.org/2000/svg" viewBox="0 0 360 1024" width="360" height="1024"><defs><linearGradient id="metal" x1="0" y1="0" x2="1" y2="0"><stop offset="0" stop-color="#33383f"/><stop offset=".45" stop-color="#6a727c"/><stop offset="1" stop-color="#24282e"/></linearGradient><linearGradient id="leaf" x1="0" y1="0" x2="0" y2="1"><stop offset="0" stop-color="#5aa06a"/><stop offset="1" stop-color="#2b6039"/></linearGradient><linearGradient id="pot" x1="0" y1="0" x2="1" y2="0"><stop offset="0" stop-color="#8e5540"/><stop offset=".5" stop-color="#c07d55"/><stop offset="1" stop-color="#7d4934"/></linearGradient><linearGradient id="cup" x1="0" y1="0" x2="1" y2="0"><stop offset="0" stop-color="#bcc2c9"/><stop offset=".45" stop-color="#f2f4f7"/><stop offset="1" stop-color="#a3a9b1"/></linearGradient><radialGradient id="bulb" cx=".5" cy=".4" r=".6"><stop offset="0" stop-color="#fff6dc"/><stop offset="1" stop-color="#eec36e"/></radialGradient><linearGradient id="fur" x1="0" y1="0" x2="0" y2="1"><stop offset="0" stop-color="#4c443a"/><stop offset="1" stop-color="#2a251f"/></linearGradient></defs><ellipse cx="180" cy="1006" rx="112" ry="18" fill="#000" opacity=".3"/><ellipse cx="180" cy="990" rx="104" ry="22" fill="url(#metal)"/><rect x="167" y="300" width="26" height="694" rx="12" fill="url(#metal)"/><path d="M180 318 Q180 168 118 152" stroke="url(#metal)" stroke-width="24" fill="none" stroke-linecap="round"/><path d="M18 140 L242 140 L196 26 L64 26 Z" fill="url(#metal)"/><ellipse cx="130" cy="142" rx="112" ry="24" fill="url(#bulb)"/><ellipse cx="130" cy="144" rx="66" ry="14" fill="#fff9e6" opacity=".9"/></svg>